{"title":"Thompson Square - If I Didn't Have You [Music Video] 720p [Sbyky","uid":8463517,"size":34281159,"categoryP":"video","categoryS":"music_videos","magnet":"?xt=urn:btih:2339b23bb1f3926b596146a39a431cff0a06ed2b&amp;dn=Thompson+Square+-+If+I+Didn%27t+Have+You+%5BMusic+Video%5D+720p+%5BSbyky&amp;tr=udp%3A%2F%2Ftracker.openbittorrent.com%3A80&amp;tr=udp%3A%2F%2Fopen.demonii.com%3A1337&amp;tr=udp%3A%2F%2Ftracker.coppersurfer.tk%3A6969&amp;tr=udp%3A%2F%2Fexodus.desync.com%3A6969","seeders":0,"leechers":1,"uploader":"Sbyky","files":-1,"time":1368303256,"description":"[IMG]http://www.shotpix.com/images/54704428649748326869.jpg[/IMG]\n\nGeneral\nComplete name                            : Thompson Square - If I Didn't Have You [Music Video] 720p [Sbyky].mp4\nFormat                                   : MPEG-4\nFormat profile                           : Base Media / Version 2\nCodec ID                                 : mp42\nFile size                                : 32.7 MiB\nDuration                                 : 3mn 22s\nOverall bit rate mode                    : Variable\nOverall bit rate                         : 1 356 Kbps\nEncoded date                             : UTC 2013-04-10 23:34:05\nTagged date                              : UTC 2013-04-10 23:34:05\n\nVideo\nID                                       : 1\nFormat                                   : AVC\nFormat/Info                              : Advanced Video Codec\nFormat profile                           : &lt;a class=&quot;__cf_email__&quot; href=&quot;/cdn-cgi/l/email-protection&quot; data-cfemail=&quot;165e7f717e565a253827&quot;&gt;[email&amp;#160;protected]&lt;/a&gt;&lt;script data-cfhash='f9e31' type=&quot;text/javascript&quot;&gt;\n/* &lt;![CDATA[ */!function(){try{var t=&quot;currentScript&quot;in document?document.currentScript:function(){for(var t=document.getElementsByTagName(&quot;script&quot;),e=t.length;e--;)if(t[e].getAttribute(&quot;data-cfhash&quot;))return t[e]}();if(t&amp;&amp;t.previousSibling){var e,r,n,i,c=t.previousSibling,a=c.getAttribute(&quot;data-cfemail&quot;);if(a){for(e=&quot;&quot;,r=parseInt(a.substr(0,2),16),n=2;a.length-n;n+=2)i=parseInt(a.substr(n,2),16)^r,e+=String.fromCharCode(i);e=document.createTextNode(e),c.parentNode.replaceChild(e,c)}t.parentNode.removeChild(t);}}catch(u){}}()/* ]]&gt; */&lt;/script&gt;\nFormat settings, CABAC                   : Yes\nFormat settings, ReFrames                : 1 frame\nCodec ID                                 : avc1\nCodec ID/Info                            : Advanced Video Coding\nDuration                                 : 3mn 22s\nBit rate                                 : 1 161 Kbps\nMaximum bit rate                         : 2 766 Kbps\nWidth                                    : 1 280 pixels\nHeight                                   : 720 pixels\nDisplay aspect ratio                     : 16:9\nFrame rate mode                          : Constant\nFrame rate                               : 29.970 fps\nColor space                              : YUV\nChroma subsampling                       : 4:2:0\nBit depth                                : 8 bits\nScan type                                : Progressive\nBits/(Pixel*Frame)                       : 0.042\nStream size                              : 28.0 MiB (86%)\nTagged date                              : UTC 2013-04-10 23:34:10\n\nAudio\nID                                       : 2\nFormat                                   : AAC\nFormat/Info                              : Advanced Audio Codec\nFormat profile                           : LC\nCodec ID                                 : 40\nDuration                                 : 3mn 22s\nBit rate mode                            : Variable\nBit rate                                 : 192 Kbps\nMaximum bit rate                         : 202 Kbps\nChannel(s)                               : 2 channels\nChannel positions                        : Front: L R\nSampling rate                            : 44.1 KHz\nCompression mode                         : Lossy\nStream size                              : 4.63 MiB (14%)\nTitle                                    : IsoMedia File Produced by Google, 5-11-2011\nEncoded date                             : UTC 2013-04-10 23:34:08\nTagged date                              : UTC 2013-04-10 23:34:10\n\nShared By Sbyky\n[IMG]http://www.shotpix.com/images/76014917432015785852.gif[/IMG]\n[IMG]http://www.shotpix.com/images/54100788659511547411.gif[/IMG]","torrent":{"xt":"urn:btih:2339b23bb1f3926b596146a39a431cff0a06ed2b","amp;dn":"Thompson+Square+-+If+I+Didn%27t+Have+You+%5BMusic+Video%5D+720p+%5BSbyky","amp;tr":["udp%3A%2F%2Ftracker.openbittorrent.com%3A80","udp%3A%2F%2Fopen.demonii.com%3A1337","udp%3A%2F%2Ftracker.coppersurfer.tk%3A6969","udp%3A%2F%2Fexodus.desync.com%3A6969"],"infoHash":"2339b23bb1f3926b596146a39a431cff0a06ed2b","infoHashBuffer":{"type":"Buffer","data":[35,57,178,59,177,243,146,107,89,97,70,163,154,67,28,255,10,6,237,43]},"announce":[],"urlList":[]}}